# Blender v2.80 (sub 75) OBJ File: ''
# www.blender.org
mtllib hat.mtl
o Cone
v 0.000000 -1.229728 -1.229728
v 0.239908 -1.229728 -1.206099
v 0.470597 -1.229728 -1.136121
v 0.683200 -1.229728 -1.022482
v 0.869549 -1.229728 -0.869549
v 1.022482 -1.229728 -0.683200
v 1.136121 -1.229728 -0.470597
v 1.206099 -1.229728 -0.239908
v 1.229728 -1.229728 -0.000000
v 1.206099 -1.229728 0.239908
v 1.136121 -1.229728 0.470596
v 1.022482 -1.229728 0.683200
v 0.869549 -1.229728 0.869549
v 0.683200 -1.229728 1.022482
v 0.470596 -1.229728 1.136121
v 0.239908 -1.229728 1.206099
v -0.000000 -1.229728 1.229728
v -0.239909 -1.229728 1.206099
v -0.470597 -1.229728 1.136120
v -0.683201 -1.229728 1.022481
v -0.869550 -1.229728 0.869549
v -1.022482 -1.229728 0.683200
v -1.136121 -1.229728 0.470596
v 0.000000 1.229728 0.000000
v -1.206100 -1.229728 0.239907
v -1.229728 -1.229728 -0.000001
v -1.206099 -1.229728 -0.239909
v -1.136120 -1.229728 -0.470598
v -1.022481 -1.229728 -0.683202
v -0.869548 -1.229728 -0.869550
v -0.683199 -1.229728 -1.022483
v -0.470595 -1.229728 -1.136121
v -0.239906 -1.229728 -1.206100
v 0.694829 -0.274427 -0.287808
v 0.677883 -0.126038 -0.000000
v 0.832949 -0.436169 -0.000000
v 0.581512 -0.029119 0.240870
v 0.918651 -0.758953 0.380518
v 0.698017 -0.193656 -0.138844
v 0.769346 -0.339108 -0.153032
v 0.638036 -0.071344 0.126913
v 0.883847 -0.572597 0.175808
v 0.427753 0.019859 0.427753
v 0.444176 -0.026591 0.444176
v 0.510768 0.001138 0.341284
v 0.635498 -0.298885 0.424626
v 8.778449 4.172126 1.933694
v 8.761503 4.320516 2.221501
v 8.916569 4.010384 2.221501
v 8.665132 4.417434 2.462371
v 9.002271 3.687600 2.602019
v 8.781637 4.252896 2.082657
v 8.852965 4.107445 2.068469
v 8.721656 4.375209 2.348414
v 8.967467 3.873956 2.397309
v 8.511373 4.466412 2.649255
v 8.527796 4.419962 2.665677
v 8.594387 4.447691 2.562785
v 8.719117 4.147668 2.646127
v 8.560167 4.406111 2.637096
vt 0.250000 0.490000
vt 0.250000 0.250000
vt 0.296822 0.485388
vt 0.341844 0.471731
vt 0.383337 0.449553
vt 0.419706 0.419706
vt 0.449553 0.383337
vt 0.385606 0.306170
vt 0.471731 0.341844
vt 0.400149 0.279867
vt 0.485388 0.296822
vt 0.412562 0.250000
vt 0.490000 0.250000
vt 0.422496 0.215688
vt 0.485388 0.203178
vt 0.429289 0.175736
vt 0.471731 0.158156
vt 0.449553 0.116663
vt 0.374027 0.167128
vt 0.419706 0.080294
vt 0.333483 0.166517
vt 0.383337 0.050447
vt 0.341844 0.028269
vt 0.296822 0.014612
vt 0.250000 0.010000
vt 0.203178 0.014612
vt 0.158156 0.028269
vt 0.116663 0.050447
vt 0.080294 0.080294
vt 0.050447 0.116663
vt 0.028269 0.158156
vt 0.014611 0.203179
vt 0.010000 0.250000
vt 0.014612 0.296822
vt 0.028269 0.341844
vt 0.050447 0.383337
vt 0.080295 0.419706
vt 0.116663 0.449553
vt 0.158156 0.471731
vt 0.203179 0.485389
vt 0.985388 0.296822
vt 0.796822 0.014612
vt 0.514611 0.203179
vt 0.400149 0.279867
vt 0.385606 0.306170
vt 0.386229 0.277098
vt 0.412562 0.250000
vt 0.422496 0.215688
vt 0.386229 0.277098
vt 0.374027 0.167128
vt 0.349684 0.183393
vt 0.363491 0.202991
vt 0.374522 0.225231
vt 0.382299 0.250000
vt 0.382299 0.250000
vt 0.349684 0.183393
vt 0.363491 0.202991
vt 0.336688 0.163312
vt 0.336688 0.163312
vt 0.343005 0.168890
vt 0.333483 0.166517
vt 0.374522 0.225231
vt 0.429289 0.175736
vt 0.703179 0.485389
vt 0.750000 0.490000
vt 0.796822 0.485388
vt 0.841844 0.471731
vt 0.883337 0.449553
vt 0.919706 0.419706
vt 0.949553 0.383337
vt 0.971731 0.341844
vt 0.990000 0.250000
vt 0.985388 0.203178
vt 0.971731 0.158156
vt 0.949553 0.116663
vt 0.919706 0.080294
vt 0.883337 0.050447
vt 0.841844 0.028269
vt 0.750000 0.010000
vt 0.703178 0.014612
vt 0.658156 0.028269
vt 0.616663 0.050447
vt 0.580294 0.080294
vt 0.550447 0.116663
vt 0.528269 0.158156
vt 0.510000 0.250000
vt 0.514612 0.296822
vt 0.528269 0.341844
vt 0.550447 0.383337
vt 0.580295 0.419706
vt 0.616663 0.449553
vt 0.658156 0.471731
vn 0.0878 0.4455 -0.8910
vn 0.2599 0.4455 -0.8567
vn 0.4220 0.4455 -0.7896
vn 0.5680 0.4455 -0.6921
vn 0.6921 0.4455 -0.5680
vn 0.7896 0.4455 -0.4220
vn 0.8567 0.4455 -0.2599
vn 0.8910 0.4455 -0.0878
vn 0.8910 0.4455 0.0878
vn 0.8567 0.4455 0.2599
vn 0.7896 0.4455 0.4220
vn 0.6921 0.4455 0.5680
vn 0.5680 0.4455 0.6921
vn 0.4220 0.4455 0.7896
vn 0.2599 0.4455 0.8567
vn 0.0878 0.4455 0.8910
vn -0.0878 0.4455 0.8910
vn -0.2599 0.4455 0.8567
vn -0.4220 0.4455 0.7896
vn -0.5680 0.4455 0.6921
vn -0.6921 0.4455 0.5680
vn -0.7896 0.4455 0.4220
vn -0.8567 0.4455 0.2599
vn -0.8910 0.4455 0.0878
vn -0.8910 0.4455 -0.0878
vn -0.8567 0.4455 -0.2599
vn -0.7896 0.4455 -0.4220
vn -0.6921 0.4455 -0.5680
vn -0.5680 0.4455 -0.6921
vn -0.4220 0.4455 -0.7896
vn -0.2599 0.4455 -0.8567
vn -0.0878 0.4455 -0.8910
vn 0.0000 -1.0000 0.0000
vn 0.5028 -0.6063 -0.6161
vn -0.1606 -0.1917 0.9682
vn -0.3281 0.8257 -0.4589
vn -0.3211 0.8202 -0.4734
vn 0.5084 -0.6323 -0.5846
vn -0.3353 0.8312 -0.4435
vn -0.1644 -0.1851 0.9689
vn -0.3316 0.8284 -0.4515
vn -0.3586 0.1959 0.9127
vn -0.3247 0.8231 -0.4660
vn 0.5054 -0.6181 -0.6021
vn 0.5005 -0.5962 -0.6278
vn -0.3172 0.8171 -0.4814
usemtl None
s off
f 1/1/1 24/2/1 2/3/1
f 2/3/2 24/2/2 3/4/2
f 3/4/3 24/2/3 4/5/3
f 4/5/4 24/2/4 5/6/4
f 5/6/5 24/2/5 6/7/5
f 6/7/6 34/8/6 7/9/6
f 7/9/7 40/10/7 8/11/7
f 8/11/8 36/12/8 9/13/8
f 9/13/9 42/14/9 10/15/9
f 10/15/10 38/16/10 11/17/10
f 38/16/11 12/18/11 11/17/11
f 46/19/12 13/20/12 12/18/12
f 43/21/13 24/2/13 14/22/13
f 14/22/14 24/2/14 15/23/14
f 15/23/15 24/2/15 16/24/15
f 16/24/16 24/2/16 17/25/16
f 17/25/17 24/2/17 18/26/17
f 18/26/18 24/2/18 19/27/18
f 19/27/19 24/2/19 20/28/19
f 20/28/20 24/2/20 21/29/20
f 21/29/21 24/2/21 22/30/21
f 22/30/22 24/2/22 23/31/22
f 23/31/23 24/2/23 25/32/23
f 25/32/24 24/2/24 26/33/24
f 26/33/25 24/2/25 27/34/25
f 27/34/26 24/2/26 28/35/26
f 28/35/27 24/2/27 29/36/27
f 29/36/28 24/2/28 30/37/28
f 30/37/29 24/2/29 31/38/29
f 31/38/30 24/2/30 32/39/30
f 32/39/31 24/2/31 33/40/31
f 33/40/32 24/2/32 1/1/32
f 8/41/33 16/42/33 25/43/33
f 53/44/7 47/45/7 52/46/7
f 42/14/34 49/47/34 55/48/34
f 39/49/7 34/8/7 24/2/7
f 38/16/35 59/50/35 46/19/35
f 45/51/11 37/52/11 24/2/11
f 41/53/36 48/54/36 35/55/36
f 35/55/8 39/49/8 24/2/8
f 37/52/37 58/56/37 50/57/37
f 40/10/38 47/45/38 53/44/38
f 43/21/12 45/51/12 24/2/12
f 39/49/39 47/45/39 34/8/39
f 41/53/9 35/55/9 24/2/9
f 46/19/40 57/58/40 44/59/40
f 37/52/10 41/53/10 24/2/10
f 59/50/11 50/57/11 58/56/11
f 53/44/8 48/54/8 49/47/8
f 59/50/12 60/60/12 57/58/12
f 60/60/12 56/61/12 57/58/12
f 49/47/9 54/62/9 55/48/9
f 55/48/10 50/57/10 51/63/10
f 35/55/41 52/46/41 39/49/41
f 43/21/42 57/58/42 56/61/42
f 41/53/43 50/57/43 54/62/43
f 36/12/44 53/44/44 49/47/44
f 42/14/45 51/63/45 38/16/45
f 45/51/46 56/61/46 58/56/46
f 6/7/6 24/2/6 34/8/6
f 7/9/7 34/8/7 40/10/7
f 8/11/8 40/10/8 36/12/8
f 9/13/9 36/12/9 42/14/9
f 10/15/10 42/14/10 38/16/10
f 38/16/11 46/19/11 12/18/11
f 46/19/12 44/59/12 13/20/12
f 14/22/13 13/20/13 44/59/13
f 44/59/13 43/21/13 14/22/13
f 33/64/33 1/65/33 2/66/33
f 2/66/33 3/67/33 4/68/33
f 4/68/33 5/69/33 6/70/33
f 6/70/33 7/71/33 4/68/33
f 7/71/33 8/41/33 4/68/33
f 8/41/33 9/72/33 10/73/33
f 10/73/33 11/74/33 8/41/33
f 11/74/33 12/75/33 8/41/33
f 12/75/33 13/76/33 16/42/33
f 13/76/33 14/77/33 16/42/33
f 14/77/33 15/78/33 16/42/33
f 16/42/33 17/79/33 18/80/33
f 18/80/33 19/81/33 20/82/33
f 20/82/33 21/83/33 22/84/33
f 22/84/33 23/85/33 25/43/33
f 25/43/33 26/86/33 27/87/33
f 27/87/33 28/88/33 29/89/33
f 29/89/33 30/90/33 33/64/33
f 30/90/33 31/91/33 33/64/33
f 31/91/33 32/92/33 33/64/33
f 33/64/33 2/66/33 4/68/33
f 16/42/33 18/80/33 25/43/33
f 18/80/33 20/82/33 25/43/33
f 20/82/33 22/84/33 25/43/33
f 25/43/33 27/87/33 33/64/33
f 27/87/33 29/89/33 33/64/33
f 33/64/33 4/68/33 8/41/33
f 8/41/33 12/75/33 16/42/33
f 33/64/33 8/41/33 25/43/33
f 42/14/34 36/12/34 49/47/34
f 38/16/35 51/63/35 59/50/35
f 41/53/36 54/62/36 48/54/36
f 37/52/37 45/51/37 58/56/37
f 40/10/38 34/8/38 47/45/38
f 39/49/39 52/46/39 47/45/39
f 46/19/40 59/50/40 57/58/40
f 59/50/11 51/63/11 50/57/11
f 53/44/8 52/46/8 48/54/8
f 59/50/12 58/56/12 60/60/12
f 60/60/12 58/56/12 56/61/12
f 49/47/9 48/54/9 54/62/9
f 55/48/10 54/62/10 50/57/10
f 35/55/41 48/54/41 52/46/41
f 43/21/42 44/59/42 57/58/42
f 41/53/43 37/52/43 50/57/43
f 36/12/44 40/10/44 53/44/44
f 42/14/45 55/48/45 51/63/45
f 45/51/46 43/21/46 56/61/46
